<?xml version="1.0" encoding="utf-8"?>
<!-- Generator: Adobe Illustrator 28.4.1, SVG Export Plug-In . SVG Version: 6.00 Build 0)  -->
<svg version="1.1" id="Layer_1" xmlns="http://www.w3.org/2000/svg" xmlns:xlink="http://www.w3.org/1999/xlink" x="0px" y="0px"
	 viewBox="0 0 595.28 191.56" style="enable-background:new 0 0 595.28 191.56;" xml:space="preserve">
<style type="text/css">
	.st0{fill:url(#SVGID_1_);}
	.st1{fill:url(#SVGID_00000155142846506626862400000002385761751250329222_);}
	.st2{fill:url(#SVGID_00000125582639611295418550000016479574297736574861_);}
	.st3{fill:url(#SVGID_00000005979075447844257560000012626855275841692320_);}
	.st4{fill:url(#SVGID_00000160876581041294861900000016309735329049978278_);}
	.st5{fill:url(#SVGID_00000119103390967994530820000016423597495691151755_);}
</style>
<g>
	<linearGradient id="SVGID_1_" gradientUnits="userSpaceOnUse" x1="567.4853" y1="159.1055" x2="467.8822" y2="59.5024">
		<stop  offset="0.0123" style="stop-color:#58595B"/>
		<stop  offset="1" style="stop-color:#000000"/>
	</linearGradient>
	<path class="st0" d="M539.74,155.3c-9.85-12.64-20.37-26.12-32.9-42.19c0,15.87,0,28.97,0,42.62c-8.92,0-16.19,0-24.18,0
		c0-36.52,0-72.89,0-111.01c5.09-0.62,39.96-4.56,59.78,9.09c2.87,1.97,8.28,5.7,11.82,12.83c0.72,1.45,5.05,10.2,2.49,20.73
		c-2.36,9.72-10.06,17.96-22.2,23.57c12.33,14.89,24.07,29.07,36.73,44.35C560.97,155.3,551.57,155.3,539.74,155.3z M506.81,64.57
		c0,11.23,0,20.67,0,30.51c7.43,2.45,15.4,0.24,19.75-5.29c5.48-6.96,4.43-18.18-3.39-24.89C517.72,64.79,512.27,64.68,506.81,64.57
		z"/>
	
		<linearGradient id="SVGID_00000140003192429926573410000014606698162871871367_" gradientUnits="userSpaceOnUse" x1="453.6992" y1="167.3257" x2="364.8954" y2="78.5219">
		<stop  offset="0.0123" style="stop-color:#58595B"/>
		<stop  offset="1" style="stop-color:#000000"/>
	</linearGradient>
	<path style="fill:url(#SVGID_00000140003192429926573410000014606698162871871367_);" d="M380,155.78c-8.64,0-16.86,0-26.6,0
		c15.16-37.54,29.91-74.08,44.54-110.31c7.48,0,13.64,0,22.65,0c14.48,35.57,29.43,72.29,44.84,110.12c-9.42,0-17.51,0-26.62,0
		c-2.56-6.4-5.39-13.47-8.27-20.66c-14.12,0-27.73,0-42.29,0C385.56,141.74,382.77,148.8,380,155.78z M409.29,79.16
		c-4.57,12.6-8.01,22.09-11.55,31.88c9.07,0,15.91,0,23.73,0C417.63,101.01,414.13,91.84,409.29,79.16z"/>
	
		<linearGradient id="SVGID_00000008126108687439325820000010427745443022172322_" gradientUnits="userSpaceOnUse" x1="256.442" y1="150.5126" x2="158.99" y2="53.0606">
		<stop  offset="0.0123" style="stop-color:#58595B"/>
		<stop  offset="1" style="stop-color:#000000"/>
	</linearGradient>
	<path style="fill:url(#SVGID_00000008126108687439325820000010427745443022172322_);" d="M201.14,134.84c18.48,0,34.07,0,50.03,0
		c0,7.65,0,14.03,0,20.95c-30.77,0-61.03,0-93.14,0c17.92-29.17,35.34-57.53,53.76-87.53c-16.25,0-30.58,0-45.76,0
		c0-7.88,0-14.69,0-22.24c29.4,0,58.34,0,89.62,0C237.62,75.39,220.05,104.03,201.14,134.84z"/>
	
		<linearGradient id="SVGID_00000145022593172568515280000004774548931791354252_" gradientUnits="userSpaceOnUse" x1="333.5562" y1="124.6442" x2="266.7372" y2="57.8252">
		<stop  offset="0.0123" style="stop-color:#58595B"/>
		<stop  offset="1" style="stop-color:#000000"/>
	</linearGradient>
	<path style="fill:url(#SVGID_00000145022593172568515280000004774548931791354252_);" d="M338,111.38c-11.61,0-22.89,0-35.53,0
		c0,15.22,0,29.49,0,44.34c-8.63,0-15.91,0-23.89,0c0-36.41,0-72.73,0-109.75c20.75,0,41.21,0,62.36,0c0,7.13,0,13.96,0,22.18
		c-12.65,0-25.2,0-38.3,0c0,7.72,0,14.07,0,21.34c11.87,0,23.17,0,35.36,0C338,96.74,338,103.1,338,111.38z"/>
	<g>
		
			<linearGradient id="SVGID_00000004548547609508932790000009663294384812646309_" gradientUnits="userSpaceOnUse" x1="112.071" y1="155.1899" x2="44.0235" y2="87.1424">
			<stop  offset="5.086263e-07" style="stop-color:#262262"/>
			<stop  offset="1" style="stop-color:#1C75BC"/>
		</linearGradient>
		<path style="fill:url(#SVGID_00000004548547609508932790000009663294384812646309_);" d="M27.44,152.45
			c11.13-19.44,22.48-39.38,33.32-58.98c8.62-15.57,16.63-31.48,25.72-48.79c11.23,21.22,21.99,41.58,32.78,61.92
			c7.84,2.32,15.66,4.65,31.9,9.49c-52.31-3.34-87.75,19.1-123.73,39.4C27.44,154.48,27.44,153.46,27.44,152.45z M86.58,77.81
			C80.5,89.38,75.1,99.64,69.26,110.74c11.16-1.96,21.02-3.69,31.5-5.53C96.15,96.29,91.71,87.72,86.58,77.81z"/>
		
			<linearGradient id="SVGID_00000093174999257572584540000003798659338450652058_" gradientUnits="userSpaceOnUse" x1="142.2304" y1="160.4742" x2="111.7793" y2="130.0231">
			<stop  offset="5.086263e-07" style="stop-color:#262262"/>
			<stop  offset="1" style="stop-color:#1C75BC"/>
		</linearGradient>
		<path style="fill:url(#SVGID_00000093174999257572584540000003798659338450652058_);" d="M125.75,119.02
			c7.16,13.6,13.15,24.97,19.98,37.95c-15.66-4.88-29.58-9.21-46.44-14.46C108.56,134.28,116.49,127.24,125.75,119.02z"/>
	</g>
</g>
</svg>
