<?xml version="1.0" encoding="utf-8"?>
<!-- Generator: Adobe Illustrator 28.4.1, SVG Export Plug-In . SVG Version: 6.00 Build 0)  -->
<svg version="1.1" id="Layer_1" xmlns="http://www.w3.org/2000/svg" xmlns:xlink="http://www.w3.org/1999/xlink" x="0px" y="0px"
	 viewBox="0 0 595.28 191.56" style="enable-background:new 0 0 595.28 191.56;" xml:space="preserve">
<style type="text/css">
	.st0{fill:url(#SVGID_1_);}
	.st1{fill:url(#SVGID_00000126311898913206959470000017356776690032855431_);}
	.st2{fill:url(#SVGID_00000139266866004660443920000017065481344532050360_);}
	.st3{fill:url(#SVGID_00000130627718658830508990000010519676883388243635_);}
	.st4{fill:url(#SVGID_00000023998096955684814440000014793351286089693841_);}
	.st5{fill:url(#SVGID_00000119822955023536615610000014802031108370593156_);}
</style>
<g>
	<linearGradient id="SVGID_1_" gradientUnits="userSpaceOnUse" x1="565.7554" y1="153.0382" x2="466.1524" y2="53.4351">
		<stop  offset="5.086263e-07" style="stop-color:#262262"/>
		<stop  offset="1" style="stop-color:#1C75BC"/>
	</linearGradient>
	<path class="st0" d="M538.01,149.23c-9.85-12.64-20.37-26.12-32.9-42.19c0,15.87,0,28.97,0,42.62c-8.92,0-16.19,0-24.18,0
		c0-36.52,0-72.89,0-111.01c5.09-0.62,39.96-4.56,59.78,9.09c2.87,1.97,8.28,5.7,11.82,12.83c0.72,1.45,5.05,10.2,2.49,20.73
		c-2.36,9.72-10.06,17.96-22.2,23.57c12.33,14.89,24.07,29.07,36.73,44.35C559.24,149.23,549.84,149.23,538.01,149.23z M505.08,58.5
		c0,11.23,0,20.67,0,30.51c7.43,2.45,15.4,0.24,19.75-5.29c5.48-6.96,4.43-18.18-3.39-24.89C515.99,58.73,510.54,58.62,505.08,58.5z
		"/>
	
		<linearGradient id="SVGID_00000149362816869612446480000005956256508449127061_" gradientUnits="userSpaceOnUse" x1="451.9694" y1="161.2584" x2="363.1656" y2="72.4546">
		<stop  offset="5.086263e-07" style="stop-color:#262262"/>
		<stop  offset="1" style="stop-color:#1C75BC"/>
	</linearGradient>
	<path style="fill:url(#SVGID_00000149362816869612446480000005956256508449127061_);" d="M378.27,149.71c-8.64,0-16.86,0-26.6,0
		c15.16-37.54,29.91-74.08,44.54-110.31c7.48,0,13.64,0,22.65,0c14.48,35.57,29.43,72.29,44.84,110.12c-9.42,0-17.51,0-26.62,0
		c-2.56-6.4-5.39-13.47-8.27-20.66c-14.12,0-27.73,0-42.29,0C383.83,135.67,381.04,142.73,378.27,149.71z M407.56,73.1
		c-4.57,12.6-8.01,22.09-11.55,31.88c9.07,0,15.91,0,23.73,0C415.9,94.94,412.4,85.77,407.56,73.1z"/>
	
		<linearGradient id="SVGID_00000068661059900079134670000003691139255265407117_" gradientUnits="userSpaceOnUse" x1="254.7122" y1="144.4453" x2="157.2602" y2="46.9933">
		<stop  offset="5.086263e-07" style="stop-color:#262262"/>
		<stop  offset="1" style="stop-color:#1C75BC"/>
	</linearGradient>
	<path style="fill:url(#SVGID_00000068661059900079134670000003691139255265407117_);" d="M199.41,128.78c18.48,0,34.07,0,50.03,0
		c0,7.65,0,14.03,0,20.95c-30.77,0-61.03,0-93.14,0c17.92-29.17,35.34-57.53,53.76-87.53c-16.25,0-30.58,0-45.76,0
		c0-7.88,0-14.69,0-22.24c29.4,0,58.34,0,89.62,0C235.89,69.32,218.32,97.96,199.41,128.78z"/>
	
		<linearGradient id="SVGID_00000062154471837862419810000017090574892644452252_" gradientUnits="userSpaceOnUse" x1="331.8264" y1="118.5769" x2="265.0073" y2="51.7579">
		<stop  offset="5.086263e-07" style="stop-color:#262262"/>
		<stop  offset="1" style="stop-color:#1C75BC"/>
	</linearGradient>
	<path style="fill:url(#SVGID_00000062154471837862419810000017090574892644452252_);" d="M336.27,105.32c-11.61,0-22.89,0-35.53,0
		c0,15.22,0,29.49,0,44.34c-8.63,0-15.91,0-23.89,0c0-36.41,0-72.73,0-109.75c20.75,0,41.21,0,62.36,0c0,7.13,0,13.96,0,22.18
		c-12.65,0-25.2,0-38.3,0c0,7.72,0,14.07,0,21.34c11.87,0,23.17,0,35.36,0C336.27,90.67,336.27,97.03,336.27,105.32z"/>
	<g>
		
			<linearGradient id="SVGID_00000106831420233583473610000007346114744426235555_" gradientUnits="userSpaceOnUse" x1="110.3411" y1="149.1226" x2="42.2936" y2="81.0751">
			<stop  offset="5.086263e-07" style="stop-color:#262262"/>
			<stop  offset="1" style="stop-color:#1C75BC"/>
		</linearGradient>
		<path style="fill:url(#SVGID_00000106831420233583473610000007346114744426235555_);" d="M25.71,146.38
			C36.84,126.94,48.19,107,59.04,87.4c8.62-15.57,16.63-31.48,25.72-48.79c11.23,21.22,21.99,41.58,32.78,61.92
			c7.84,2.32,15.66,4.65,31.9,9.49c-52.31-3.34-87.75,19.1-123.73,39.4C25.71,148.41,25.71,147.4,25.71,146.38z M84.85,71.75
			c-6.09,11.57-11.48,21.83-17.32,32.93c11.16-1.96,21.02-3.69,31.5-5.53C94.42,90.22,89.98,81.65,84.85,71.75z"/>
		
			<linearGradient id="SVGID_00000040550560194048764110000010659915124185608855_" gradientUnits="userSpaceOnUse" x1="140.5005" y1="154.4069" x2="110.0495" y2="123.9558">
			<stop  offset="5.086263e-07" style="stop-color:#262262"/>
			<stop  offset="1" style="stop-color:#1C75BC"/>
		</linearGradient>
		<path style="fill:url(#SVGID_00000040550560194048764110000010659915124185608855_);" d="M124.02,112.95
			c7.16,13.6,13.15,24.97,19.98,37.95c-15.66-4.88-29.58-9.21-46.44-14.46C106.83,128.21,114.76,121.17,124.02,112.95z"/>
	</g>
</g>
</svg>
